<svg width="430" height="376" viewBox="0 0 430 376" fill="none" xmlns="http://www.w3.org/2000/svg">
<path d="M371.167 367.526L363.329 367.526L359.601 337.323L371.168 337.324L371.167 367.526Z" fill="#FFB6B6"/>
<path d="M373.166 375.117L347.895 375.116V374.796C347.895 372.19 348.932 369.691 350.776 367.848C352.621 366.005 355.122 364.969 357.731 364.969L362.348 361.47L370.96 364.97L373.166 364.97L373.166 375.117Z" fill="#2F2E41"/>
<path d="M334.756 367.526L326.919 367.526L323.191 337.323L334.758 337.324L334.756 367.526Z" fill="#FFB6B6"/>
<path d="M336.755 375.117L311.485 375.116V374.796C311.485 372.19 312.521 369.691 314.366 367.848C316.211 366.005 318.712 364.969 321.321 364.969L325.937 361.47L334.55 364.97L336.756 364.97L336.755 375.117Z" fill="#2F2E41"/>
<path d="M331.364 202.408L382.341 203.681C392.022 208.935 392.169 220.306 388.997 233.807C388.997 233.807 390.068 241.832 387.926 243.971C385.785 246.111 384.714 246.111 385.785 249.856C386.856 253.601 381.198 259.717 381.885 260.404C382.572 261.09 384.178 264.835 384.178 264.835L378.824 295.329C378.824 295.329 375.076 348.29 374.005 349.36C372.934 350.43 371.863 349.36 372.934 352.035C374.005 354.71 375.076 353.64 374.005 354.71C373.056 355.732 372.163 356.803 371.328 357.92H358.382C358.382 357.92 357.406 352.57 357.406 352.035C357.406 351.5 356.335 348.29 356.335 347.756C356.335 347.221 357.282 346.275 357.282 346.275C357.609 345.187 357.83 344.071 357.941 342.941C357.941 341.871 361.154 300.678 361.154 300.678L354.729 247.181L339.201 299.608C339.201 299.608 339.201 345.616 338.13 346.686C337.059 347.755 337.059 347.221 337.595 349.36C338.13 351.5 340.272 350.965 338.665 352.57C337.059 354.175 336.524 351.5 337.059 354.175L337.595 356.85L321.531 357.08C321.531 357.08 319.389 352.57 320.46 350.965C321.531 349.36 321.467 349.798 320.16 347.172C318.854 344.546 318.318 344.011 318.854 343.476C319.389 342.941 319.389 340.095 319.389 340.095L322.067 288.909C322.067 288.909 322.602 234.877 322.602 233.272C322.642 232.446 322.49 231.622 322.157 230.865V228.687L324.208 220.968L331.364 202.408Z" fill="#2F2E41"/>
<path d="M361.987 96.5041C370.734 96.5041 377.825 89.4191 377.825 80.6794C377.825 71.9397 370.734 64.8547 361.987 64.8547C353.239 64.8547 346.148 71.9397 346.148 80.6794C346.148 89.4191 353.239 96.5041 361.987 96.5041Z" fill="#FFB6B6"/>
<path d="M354.067 106.963C350.655 108.99 348.614 112.714 347.442 116.503C345.273 123.519 343.967 130.773 343.553 138.104L342.316 160.052L326.988 206.787C340.272 218.017 390.205 209.339 390.205 209.339C390.205 209.339 391.738 208.829 390.205 207.297C388.672 205.766 387.18 207.122 388.713 205.591C390.246 204.06 389.189 205.766 388.678 204.234C388.167 202.703 388.678 203.724 389.189 203.213C389.7 202.703 385.234 198.109 385.234 198.109L389.321 171.283L394.43 117.172C388.299 109.515 375.969 105.002 375.969 105.002L372.783 99.2717L356.853 100.545L354.067 106.963Z" fill="#E6E6E6"/>
<path d="M351.895 71.3922C352.508 71.397 353.118 71.477 353.711 71.6303C354.881 71.9113 356.069 72.1103 357.266 72.2259C360.933 72.5706 364.378 74.1329 367.052 76.6634C369.725 79.1939 371.473 82.5466 372.016 86.186C372.936 85.3843 375.031 83.9096 376.747 85.2802C376.773 85.302 376.789 85.3132 376.849 85.2845C377.989 84.7443 380.013 78.0937 380.074 72.238C380.106 69.1301 379.617 65.1613 377.101 63.9045L376.968 63.8383L376.933 63.6944C376.765 62.9952 374.887 61.8018 371.623 60.873C365.692 59.185 356.85 55.8968 351.871 60.736C351.495 62.3674 350.269 65.8586 349.031 66.2543C347.659 66.6923 346.475 67.0703 346.288 68.7508C346.133 71.1423 346.144 73.5418 346.322 75.9317C346.787 74.4693 347.699 73.1893 348.93 72.2719C349.805 71.6832 350.84 71.3762 351.895 71.3922Z" fill="#2F2E41"/>
<path d="M322.414 158.83L348.287 142.276L335.256 124.968L322.388 140.782L282.296 143.239C281.241 142.198 279.906 141.485 278.454 141.189C277.001 140.892 275.493 141.025 274.114 141.569C272.735 142.114 271.545 143.048 270.688 144.257C269.831 145.466 269.345 146.898 269.289 148.379C269.233 149.859 269.609 151.324 270.371 152.594C271.134 153.865 272.25 154.886 273.583 155.534C274.917 156.182 276.41 156.428 277.881 156.242C279.352 156.057 280.738 155.448 281.868 154.489L322.414 158.83Z" fill="#FFB6B6"/>
<path d="M372.3 119.168C373.802 128.248 345.445 145.586 345.445 145.586C345.444 143.455 328.519 159.543 327.755 157.776C325.584 152.753 324.058 140.855 321.024 138.95C319.289 137.861 331.473 127.63 331.473 127.63C331.473 127.63 337.852 121.211 346.222 113.113C348.545 110.78 351.422 109.072 354.584 108.149C357.747 107.225 361.091 107.116 364.307 107.831C364.307 107.831 370.799 110.089 372.3 119.168Z" fill="#E6E6E6"/>
<path d="M425.628 163.176L408.514 137.682L391.471 151.066L407.569 163.584L410.876 203.58C409.856 204.655 409.172 206.004 408.906 207.461C408.64 208.919 408.804 210.422 409.378 211.788C409.953 213.153 410.912 214.323 412.14 215.153C413.368 215.983 414.812 216.438 416.294 216.463C417.777 216.488 419.235 216.082 420.49 215.293C421.745 214.504 422.743 213.368 423.363 212.022C423.983 210.676 424.198 209.18 423.981 207.714C423.764 206.249 423.125 204.878 422.142 203.769L425.628 163.176Z" fill="#FFB6B6"/>
<path d="M384.883 114.185C393.937 112.493 411.887 140.451 411.887 140.451C409.755 140.497 426.212 157.062 424.46 157.863C419.479 160.138 407.606 161.915 405.764 164.986C404.711 166.742 394.216 154.787 394.216 154.787C394.216 154.787 387.656 148.552 379.376 140.363C376.992 138.091 375.222 135.254 374.231 132.115C373.24 128.976 373.06 125.637 373.708 122.41C373.708 122.41 375.83 115.877 384.883 114.185Z" fill="#E6E6E6"/>
<path d="M264.545 145.659H47.7854C44.3989 145.663 41.1522 147.008 38.7575 149.401C36.3629 151.793 35.0159 155.037 35.0121 158.421V293.254C35.0159 296.637 36.3629 299.881 38.7576 302.274C41.1522 304.666 44.3989 306.012 47.7854 306.016H264.545C267.931 306.012 271.178 304.666 273.573 302.274C275.967 299.881 277.314 296.637 277.318 293.254V158.421C277.314 155.037 275.967 151.793 273.573 149.401C271.178 147.008 267.931 145.662 264.545 145.659Z" fill="#4B367C"/>
<path d="M264.545 145.659H47.7854C44.3989 145.663 41.1522 147.008 38.7575 149.401C36.3629 151.793 35.0159 155.037 35.0121 158.421V293.254C35.0159 296.637 36.3629 299.881 38.7576 302.274C41.1522 304.666 44.3989 306.012 47.7854 306.016H264.545C267.931 306.012 271.178 304.666 273.573 302.274C275.967 299.881 277.314 296.637 277.318 293.254V158.421C277.314 155.037 275.967 151.793 273.573 149.401C271.178 147.008 267.931 145.662 264.545 145.659ZM268.737 242.511C268.685 256.238 263.25 269.398 253.599 279.167C243.947 288.937 230.848 294.538 217.111 294.769C195.117 295.055 229.28 295.167 202.754 295.167C142.096 295.167 78.8468 294.588 55.2479 294.212C52.143 294.148 49.1861 292.874 47.0087 290.662C44.8312 288.449 43.6056 285.474 43.5936 282.371V158.431C43.5948 157.32 44.0364 156.254 44.8218 155.468C45.6072 154.681 46.6725 154.237 47.7846 154.233H264.536C265.648 154.234 266.714 154.676 267.501 155.46C268.288 156.245 268.733 157.309 268.737 158.419V242.511Z" fill="#3F3D56"/>
<path d="M237.862 68.0173H72.7141C71.253 68.0194 69.828 68.472 68.6339 69.3134C67.4397 70.1547 66.5345 71.3437 66.0419 72.7182L40.536 144.213C40.1553 145.28 40.0366 146.423 40.1899 147.545C40.3431 148.668 40.7638 149.737 41.4166 150.664C42.0694 151.59 42.9353 152.346 43.9413 152.869C44.9474 153.391 46.0644 153.665 47.1983 153.666L268.689 154.059H268.698C269.871 154.059 271.024 153.768 272.056 153.213C273.088 152.658 273.966 151.855 274.612 150.878C275.257 149.9 275.649 148.778 275.754 147.611C275.858 146.445 275.671 145.271 275.209 144.194L244.373 72.3066C243.827 71.0329 242.92 69.9474 241.762 69.1848C240.605 68.4222 239.248 68.0163 237.862 68.0173Z" fill="#3F3D56"/>
<path d="M275.782 145.747C275.782 146.706 275.587 147.654 275.209 148.535L244.374 203.872C243.825 205.143 242.916 206.226 241.759 206.987C240.602 207.749 239.248 208.155 237.862 208.157H72.7167C71.255 208.156 69.8293 207.704 68.6342 206.863C67.4391 206.022 66.5327 204.833 66.0388 203.459L40.5377 148.516C40.2251 147.641 40.0883 146.713 40.135 145.785C40.1817 144.856 40.411 143.946 40.8099 143.107C41.2087 142.267 41.7693 141.514 42.4595 140.891C43.1497 140.268 43.9561 139.787 44.8325 139.476C45.5906 139.202 46.3905 139.062 47.1965 139.062L74.2524 139.011L85.2952 138.992L230.604 138.738L241.654 138.718L268.69 138.667H268.697C270.576 138.668 272.378 139.414 273.707 140.741C275.035 142.069 275.782 143.869 275.782 145.747Z" fill="#3F3D56"/>
<path d="M64.0354 246.799C67.3102 246.799 112.281 249.545 112.281 252.817C112.281 256.089 67.3102 258.648 64.0354 258.648C62.4628 258.648 60.9545 258.024 59.8425 256.913C58.7305 255.802 58.1058 254.295 58.1058 252.724C58.1058 251.152 58.7305 249.646 59.8425 248.535C60.9545 247.424 62.4628 246.799 64.0354 246.799Z" fill="#3F3D56"/>
<path d="M227.578 24.5237H88.3283C84.5965 24.528 81.0187 26.011 78.3799 28.6475C75.7411 31.284 74.2567 34.8586 74.2524 38.5871V208.157H237.862C239.206 208.161 240.522 207.779 241.653 207.055V38.5871C241.649 34.8586 240.165 31.284 237.526 28.6475C234.887 26.0111 231.309 24.528 227.578 24.5237Z" fill="#E6E6E6"/>
<path d="M174.428 35.926H98.1159C94.7178 35.9293 91.4596 37.2791 89.0562 39.6792C86.6528 42.0793 85.3002 45.3338 85.2952 48.7289V208.157H230.604V92.0524C230.587 77.172 224.663 62.906 214.132 52.384C203.6 41.862 189.322 35.9432 174.428 35.926Z" fill="white"/>
<path d="M205.849 193.998H110.051C109.223 193.998 108.429 194.327 107.843 194.912C107.257 195.497 106.928 196.29 106.928 197.118C106.928 197.945 107.257 198.738 107.843 199.323C108.429 199.908 109.223 200.237 110.051 200.237H205.849C206.677 200.237 207.471 199.908 208.057 199.323C208.642 198.738 208.971 197.945 208.971 197.118C208.971 196.29 208.642 195.497 208.057 194.912C207.471 194.327 206.677 193.998 205.849 193.998Z" fill="#E4E4E4"/>
<path d="M205.849 181.66H110.051C109.222 181.66 108.427 181.989 107.841 182.575C107.255 183.16 106.925 183.954 106.925 184.783C106.925 185.611 107.255 186.405 107.841 186.991C108.427 187.576 109.222 187.905 110.051 187.905H205.849C206.678 187.905 207.473 187.576 208.059 186.991C208.645 186.405 208.974 185.611 208.974 184.783C208.974 183.954 208.645 183.16 208.059 182.575C207.473 181.989 206.678 181.66 205.849 181.66Z" fill="#E4E4E4"/>
<path d="M151.578 169.328H110.051C109.223 169.328 108.429 169.657 107.843 170.242C107.257 170.827 106.928 171.62 106.928 172.448C106.928 173.275 107.257 174.068 107.843 174.654C108.429 175.239 109.223 175.567 110.051 175.567H151.578C152.406 175.567 153.2 175.239 153.785 174.654C154.371 174.068 154.7 173.275 154.7 172.448C154.7 171.62 154.371 170.827 153.785 170.242C153.2 169.657 152.406 169.328 151.578 169.328Z" fill="#E4E4E4"/>
<path d="M205.849 143.493H110.051C109.222 143.493 108.427 143.822 107.841 144.408C107.255 144.993 106.925 145.788 106.925 146.616C106.925 147.444 107.255 148.238 107.841 148.824C108.427 149.41 109.222 149.739 110.051 149.739H205.849C206.678 149.739 207.473 149.41 208.059 148.824C208.645 148.238 208.974 147.444 208.974 146.616C208.974 145.788 208.645 144.993 208.059 144.408C207.473 143.822 206.678 143.493 205.849 143.493Z" fill="#E4E4E4"/>
<path d="M205.849 131.161H110.051C109.223 131.161 108.429 131.49 107.843 132.075C107.257 132.66 106.928 133.454 106.928 134.281C106.928 135.108 107.257 135.902 107.843 136.487C108.429 137.072 109.223 137.4 110.051 137.4H205.849C206.677 137.4 207.471 137.072 208.057 136.487C208.642 135.902 208.971 135.108 208.971 134.281C208.971 133.454 208.642 132.66 208.057 132.075C207.471 131.49 206.677 131.161 205.849 131.161Z" fill="#E4E4E4"/>
<path d="M151.578 118.823H110.051C109.222 118.823 108.427 119.152 107.841 119.738C107.255 120.323 106.925 121.118 106.925 121.946C106.925 122.774 107.255 123.568 107.841 124.154C108.427 124.74 109.222 125.069 110.051 125.069H151.578C152.407 125.069 153.202 124.74 153.788 124.154C154.374 123.568 154.703 122.774 154.703 121.946C154.703 121.118 154.374 120.323 153.788 119.738C153.202 119.152 152.407 118.823 151.578 118.823Z" fill="#E4E4E4"/>
<path d="M205.849 92.9883H110.051C109.222 92.9883 108.427 93.3173 107.841 93.9029C107.255 94.4885 106.925 95.2828 106.925 96.111C106.925 96.9392 107.255 97.7335 107.841 98.3191C108.427 98.9047 109.222 99.2337 110.051 99.2337H205.849C206.678 99.2337 207.473 98.9047 208.059 98.3191C208.645 97.7335 208.974 96.9392 208.974 96.111C208.974 95.2828 208.645 94.4885 208.059 93.9029C207.473 93.3173 206.678 92.9883 205.849 92.9883Z" fill="#4B367C"/>
<path d="M205.849 80.6565H110.051C109.222 80.6565 108.427 80.9855 107.841 81.5711C107.255 82.1567 106.925 82.951 106.925 83.7792C106.925 84.6074 107.255 85.4017 107.841 85.9873C108.427 86.5729 109.222 86.902 110.051 86.902H205.849C206.678 86.902 207.473 86.5729 208.059 85.9873C208.645 85.4017 208.974 84.6074 208.974 83.7792C208.974 82.951 208.645 82.1567 208.059 81.5711C207.473 80.9855 206.678 80.6565 205.849 80.6565Z" fill="#4B367C"/>
<path d="M151.578 68.3184H110.051C109.222 68.3184 108.427 68.6474 107.841 69.233C107.255 69.8186 106.925 70.6129 106.925 71.4411C106.925 72.2693 107.255 73.0636 107.841 73.6492C108.427 74.2348 109.222 74.5638 110.051 74.5638H151.578C152.407 74.5638 153.202 74.2348 153.788 73.6492C154.374 73.0636 154.703 72.2693 154.703 71.4411C154.703 70.6129 154.374 69.8186 153.788 69.233C153.202 68.6474 152.407 68.3184 151.578 68.3184Z" fill="#4B367C"/>
<path d="M236.433 48.5921C249.863 48.5921 260.751 37.7144 260.751 24.2961C260.751 10.8777 249.863 0 236.433 0C223.003 0 212.115 10.8777 212.115 24.2961C212.115 37.7144 223.003 48.5921 236.433 48.5921Z" fill="#4B367C"/>
<path d="M233.116 36.941C232.696 36.941 232.281 36.8433 231.906 36.6556C231.53 36.468 231.204 36.1955 230.952 35.8598L224.318 27.0218C224.103 26.738 223.947 26.4147 223.858 26.0705C223.769 25.7262 223.749 25.3678 223.799 25.0158C223.849 24.6638 223.968 24.3251 224.149 24.019C224.33 23.713 224.569 23.4457 224.854 23.2323C225.139 23.019 225.463 22.864 225.808 22.776C226.152 22.688 226.511 22.6688 226.863 22.7196C227.216 22.7704 227.554 22.8901 227.86 23.0718C228.166 23.2536 228.433 23.4939 228.646 23.7789L232.986 29.5605L244.133 12.8541C244.531 12.2577 245.15 11.8437 245.854 11.7031C246.557 11.5626 247.288 11.707 247.885 12.1046C248.482 12.5022 248.896 13.1204 249.037 13.8233C249.177 14.5261 249.033 15.2561 248.635 15.8525L235.366 35.7375C235.126 36.0971 234.804 36.394 234.425 36.6033C234.047 36.8125 233.623 36.928 233.191 36.9402C233.166 36.9406 233.141 36.941 233.116 36.941Z" fill="white"/>
</svg>
