<svg width="134" height="26" viewBox="0 0 134 26" fill="none" xmlns="http://www.w3.org/2000/svg">
<path d="M16.48 6.376L17.024 7.528L3.936 13.64L17.024 19.752L16.48 20.904L0.896 13.64L16.48 6.376ZM30.034 1.896L21.33 25.448H20.274L28.978 1.896H30.034ZM53.0793 2.344V2.952C52.3966 3.10133 51.6606 3.4 50.8713 3.848C50.1033 4.296 49.2926 5.02133 48.4393 6.024L42.4233 13.192L44.2793 10.536L51.8953 22.408C52.1939 22.8987 52.5139 23.2933 52.8553 23.592C53.1966 23.8907 53.6446 24.1467 54.1993 24.36V25C53.4526 24.9573 52.6206 24.936 51.7033 24.936C50.7859 24.9147 49.9539 24.904 49.2073 24.904C48.7593 24.904 48.2153 24.9147 47.5753 24.936C46.9353 24.936 46.1246 24.9573 45.1433 25V24.36C46.0179 24.3173 46.5406 24.2 46.7113 24.008C46.9033 23.7947 46.8286 23.432 46.4873 22.92L41.8473 15.4C41.5486 14.9093 41.2819 14.5467 41.0473 14.312C40.8126 14.056 40.5779 13.8853 40.3433 13.8C40.1086 13.6933 39.7993 13.6293 39.4153 13.608V12.936C40.3539 12.9147 41.1859 12.6587 41.9113 12.168C42.6579 11.6773 43.4686 10.9307 44.3433 9.928L46.2313 7.656C47.0419 6.696 47.5113 5.87467 47.6393 5.192C47.7886 4.488 47.6499 3.944 47.2233 3.56C46.8179 3.176 46.1886 2.97333 45.3353 2.952V2.344C45.8686 2.36533 46.3699 2.38667 46.8393 2.408C47.3299 2.408 47.8313 2.41867 48.3433 2.44C48.8766 2.44 49.4526 2.44 50.0713 2.44C50.6899 2.44 51.2446 2.42933 51.7353 2.408C52.2473 2.38667 52.6953 2.36533 53.0793 2.344ZM42.0073 2.344V2.984C41.3246 3.00533 40.8019 3.09067 40.4392 3.24C40.0979 3.368 39.8739 3.624 39.7673 4.008C39.6606 4.37067 39.6073 4.94666 39.6073 5.736V21.608C39.6073 22.376 39.6606 22.952 39.7673 23.336C39.8953 23.72 40.1299 23.976 40.4713 24.104C40.8126 24.232 41.3246 24.3173 42.0073 24.36V25C41.4313 24.9573 40.7059 24.936 39.8313 24.936C38.9566 24.9147 38.0713 24.904 37.1753 24.904C36.1513 24.904 35.1806 24.9147 34.2633 24.936C33.3673 24.936 32.6526 24.9573 32.1193 25V24.36C32.8019 24.3173 33.3139 24.232 33.6553 24.104C33.9966 23.976 34.2206 23.72 34.3273 23.336C34.4553 22.952 34.5193 22.376 34.5193 21.608V5.736C34.5193 4.94666 34.4553 4.37067 34.3273 4.008C34.2206 3.624 33.9859 3.368 33.6233 3.24C33.2819 3.09067 32.7806 3.00533 32.1193 2.984V2.344C32.6526 2.36533 33.3673 2.38667 34.2633 2.408C35.1806 2.42933 36.1513 2.44 37.1753 2.44C38.0713 2.44 38.9566 2.42933 39.8313 2.408C40.7059 2.38667 41.4313 2.36533 42.0073 2.344ZM62.3678 8.008C64.2451 8.008 65.7171 8.56267 66.7838 9.672C67.8504 10.7813 68.3838 12.5947 68.3838 15.112H57.8558L57.7918 14.504H64.3518C64.3731 13.4587 64.3091 12.4987 64.1598 11.624C64.0104 10.728 63.7758 10.0133 63.4558 9.48C63.1358 8.94667 62.7091 8.68 62.1758 8.68C61.4291 8.68 60.7891 9.14933 60.2558 10.088C59.7438 11.0267 59.4344 12.584 59.3278 14.76L59.4238 14.952C59.4024 15.208 59.3811 15.4747 59.3598 15.752C59.3598 16.0293 59.3598 16.3173 59.3598 16.616C59.3598 18.088 59.5624 19.2827 59.9678 20.2C60.3944 21.1173 60.9278 21.7893 61.5677 22.216C62.2078 22.6213 62.8584 22.824 63.5198 22.824C63.9678 22.824 64.4264 22.76 64.8958 22.632C65.3864 22.4827 65.8771 22.2267 66.3678 21.864C66.8584 21.48 67.3171 20.9467 67.7438 20.264L68.3198 20.456C68.0638 21.2667 67.6584 22.056 67.1038 22.824C66.5491 23.592 65.8451 24.2213 64.9918 24.712C64.1384 25.2027 63.1144 25.448 61.9198 25.448C60.4691 25.448 59.1891 25.1387 58.0798 24.52C56.9704 23.9013 56.0958 22.9627 55.4557 21.704C54.8371 20.4453 54.5278 18.8453 54.5278 16.904C54.5278 14.92 54.8584 13.2667 55.5198 11.944C56.2024 10.6213 57.1304 9.64 58.3038 9C59.4984 8.33867 60.8531 8.008 62.3678 8.008ZM85.3803 8.456V9.096C84.9749 9.20267 84.5909 9.45867 84.2283 9.864C83.8656 10.248 83.5136 10.9093 83.1723 11.848L78.5003 25.064C78.1589 25.0427 77.8069 25.032 77.4443 25.032C77.1029 25.032 76.7616 25.0427 76.4203 25.064L70.7243 10.92C70.3829 10.088 70.0416 9.58667 69.7003 9.416C69.3803 9.224 69.1029 9.128 68.8682 9.128V8.456C69.5509 8.49867 70.2549 8.54133 70.9803 8.584C71.7269 8.60533 72.5376 8.616 73.4123 8.616C74.0736 8.616 74.7669 8.60533 75.4923 8.584C76.2389 8.54133 76.9323 8.49867 77.5723 8.456V9.128C77.1243 9.128 76.7189 9.14933 76.3563 9.192C76.0149 9.23467 75.7803 9.37333 75.6523 9.608C75.5243 9.84267 75.5456 10.2587 75.7163 10.856L79.4603 20.776L79.1403 21.224L81.6683 14.216C82.0736 13.064 82.2443 12.1253 82.1803 11.4C82.1163 10.6533 81.8816 10.0987 81.4763 9.736C81.0709 9.352 80.5269 9.13867 79.8443 9.096V8.456C80.1643 8.47733 80.5056 8.49867 80.8683 8.52C81.2523 8.52 81.6149 8.53067 81.9563 8.552C82.3189 8.552 82.6389 8.552 82.9163 8.552C83.3429 8.552 83.7909 8.54133 84.2603 8.52C84.7296 8.49867 85.1029 8.47733 85.3803 8.456ZM90.3343 0.199999C91.2303 0.199999 91.9343 0.423999 92.4463 0.872C92.9796 1.29867 93.2463 1.896 93.2463 2.664C93.2463 3.432 92.9796 4.04 92.4463 4.488C91.9343 4.91467 91.2303 5.128 90.3343 5.128C89.4383 5.128 88.7236 4.91467 88.1903 4.488C87.6783 4.04 87.4223 3.432 87.4223 2.664C87.4223 1.896 87.6783 1.29867 88.1903 0.872C88.7236 0.423999 89.4383 0.199999 90.3343 0.199999ZM92.8303 8.104V22.024C92.8303 22.92 92.9796 23.528 93.2783 23.848C93.5983 24.168 94.1316 24.328 94.8783 24.328V25C94.4943 24.9787 93.8969 24.9573 93.0863 24.936C92.2756 24.8933 91.4543 24.872 90.6223 24.872C89.7903 24.872 88.9476 24.8933 88.0943 24.936C87.2409 24.9573 86.6009 24.9787 86.1743 25V24.328C86.9209 24.328 87.4436 24.168 87.7423 23.848C88.0623 23.528 88.2223 22.92 88.2223 22.024V11.944C88.2223 10.984 88.0729 10.28 87.7743 9.832C87.4969 9.36267 86.9636 9.128 86.1743 9.128V8.456C86.8569 8.52 87.5183 8.552 88.1583 8.552C89.0543 8.552 89.8863 8.52 90.6543 8.456C91.4436 8.37067 92.1689 8.25333 92.8303 8.104ZM108.172 8.008C109.068 8.008 109.793 8.12533 110.348 8.36C110.924 8.57333 111.372 8.872 111.692 9.256C112.033 9.66133 112.279 10.184 112.428 10.824C112.599 11.464 112.684 12.328 112.684 13.416V22.024C112.684 22.92 112.833 23.528 113.132 23.848C113.452 24.168 113.985 24.328 114.732 24.328V25C114.327 24.9787 113.719 24.9573 112.908 24.936C112.097 24.8933 111.297 24.872 110.508 24.872C109.697 24.872 108.897 24.8933 108.108 24.936C107.34 24.9573 106.753 24.9787 106.348 25V24.328C106.988 24.328 107.436 24.168 107.692 23.848C107.948 23.528 108.076 22.92 108.076 22.024V12.072C108.076 11.5387 108.023 11.08 107.916 10.696C107.809 10.2907 107.617 9.98133 107.34 9.768C107.063 9.53333 106.647 9.416 106.092 9.416C105.516 9.416 104.983 9.576 104.492 9.896C104.023 10.216 103.639 10.664 103.34 11.24C103.063 11.7947 102.924 12.424 102.924 13.128V22.024C102.924 22.92 103.052 23.528 103.308 23.848C103.585 24.168 104.033 24.328 104.652 24.328V25C104.268 24.9787 103.703 24.9573 102.956 24.936C102.231 24.8933 101.473 24.872 100.684 24.872C99.8733 24.872 99.0413 24.8933 98.188 24.936C97.3347 24.9573 96.6947 24.9787 96.268 25V24.328C97.0147 24.328 97.5373 24.168 97.836 23.848C98.156 23.528 98.316 22.92 98.316 22.024V11.944C98.316 10.984 98.1667 10.28 97.868 9.832C97.5907 9.36267 97.0573 9.128 96.268 9.128V8.456C96.9507 8.52 97.612 8.552 98.252 8.552C99.148 8.552 99.98 8.52 100.748 8.456C101.537 8.37067 102.263 8.25333 102.924 8.104V10.984C103.457 9.896 104.183 9.128 105.1 8.68C106.017 8.232 107.041 8.008 108.172 8.008ZM117.94 6.376L133.524 13.64L117.94 20.904L117.396 19.752L130.484 13.64L117.396 7.528L117.94 6.376Z" fill="#F8F4F6"/>
</svg>
