<svg width="58" height="34" viewBox="0 0 58 34" fill="none" xmlns="http://www.w3.org/2000/svg">
<path d="M32.072 0.0159998V0.927999C31.048 1.152 29.944 1.6 28.76 2.272C27.608 2.944 26.392 4.032 25.112 5.536L16.088 16.288L18.872 12.304L30.296 30.112C30.744 30.848 31.224 31.44 31.736 31.888C32.248 32.336 32.92 32.72 33.752 33.04V34C32.632 33.936 31.384 33.904 30.008 33.904C28.632 33.872 27.384 33.856 26.264 33.856C25.592 33.856 24.776 33.872 23.816 33.904C22.856 33.904 21.64 33.936 20.168 34V33.04C21.48 32.976 22.264 32.8 22.52 32.512C22.808 32.192 22.696 31.648 22.184 30.88L15.224 19.6C14.776 18.864 14.376 18.32 14.024 17.968C13.672 17.584 13.32 17.328 12.968 17.2C12.616 17.04 12.152 16.944 11.576 16.912V15.904C12.984 15.872 14.232 15.488 15.32 14.752C16.44 14.016 17.656 12.896 18.968 11.392L21.8 7.984C23.016 6.544 23.72 5.312 23.912 4.288C24.136 3.232 23.928 2.416 23.288 1.84C22.68 1.264 21.736 0.959999 20.456 0.927999V0.0159998C21.256 0.0479994 22.008 0.079999 22.712 0.111999C23.448 0.111999 24.2 0.127998 24.968 0.159998C25.768 0.159998 26.632 0.159998 27.56 0.159998C28.488 0.159998 29.32 0.143998 30.056 0.111999C30.824 0.079999 31.496 0.0479994 32.072 0.0159998ZM15.464 0.0159998V0.975999C14.44 1.008 13.656 1.136 13.112 1.36C12.6 1.552 12.264 1.936 12.104 2.512C11.944 3.056 11.864 3.92 11.864 5.104V28.912C11.864 30.064 11.944 30.928 12.104 31.504C12.296 32.08 12.648 32.464 13.16 32.656C13.672 32.848 14.44 32.976 15.464 33.04V34C14.6 33.936 13.512 33.904 12.2 33.904C10.888 33.872 9.56 33.856 8.216 33.856C6.68 33.856 5.224 33.872 3.848 33.904C2.504 33.904 1.432 33.936 0.632 34V33.04C1.656 32.976 2.424 32.848 2.936 32.656C3.448 32.464 3.784 32.08 3.944 31.504C4.136 30.928 4.232 30.064 4.232 28.912V5.104C4.232 3.92 4.136 3.056 3.944 2.512C3.784 1.936 3.432 1.552 2.888 1.36C2.376 1.136 1.624 1.008 0.632 0.975999V0.0159998C1.432 0.0479994 2.504 0.079999 3.848 0.111999C5.224 0.143998 6.68 0.159998 8.216 0.159998C9.56 0.159998 10.888 0.143998 12.2 0.111999C13.512 0.079999 14.6 0.0479994 15.464 0.0159998ZM57.3616 0.0159998C57.2336 1.648 57.1376 3.216 57.0736 4.72C57.0416 6.224 57.0256 7.376 57.0256 8.176C57.0256 8.88 57.0416 9.552 57.0736 10.192C57.1056 10.832 57.1376 11.376 57.1696 11.824H56.0656C55.5536 9.136 54.8976 7.008 54.0976 5.44C53.3296 3.872 52.4016 2.768 51.3136 2.128C50.2256 1.456 48.9456 1.12 47.4736 1.12H46.3696V28.528C46.3696 29.808 46.4976 30.768 46.7536 31.408C47.0416 32.048 47.5536 32.48 48.2896 32.704C49.0256 32.896 50.0976 33.008 51.5056 33.04V34C50.5136 33.968 49.1856 33.936 47.5216 33.904C45.8896 33.872 44.1776 33.856 42.3856 33.856C40.6256 33.856 38.9616 33.872 37.3936 33.904C35.8256 33.936 34.5616 33.968 33.6016 34V33.04C35.0416 33.008 36.1296 32.896 36.8656 32.704C37.6016 32.48 38.0976 32.048 38.3536 31.408C38.6096 30.768 38.7376 29.808 38.7376 28.528V1.12H37.6816C36.2096 1.12 34.9296 1.456 33.8416 2.128C32.7536 2.768 31.8256 3.872 31.0576 5.44C30.2896 6.976 29.6176 9.104 29.0416 11.824H27.9376C28.0016 11.376 28.0336 10.832 28.0336 10.192C28.0656 9.552 28.0816 8.88 28.0816 8.176C28.0816 7.376 28.0496 6.224 27.9856 4.72C27.9536 3.216 27.8736 1.648 27.7456 0.0159998C29.2176 0.0479994 30.8176 0.079999 32.5456 0.111999C34.3056 0.143998 36.0656 0.159998 37.8256 0.159998C39.5856 0.159998 41.1696 0.159998 42.5776 0.159998C44.0176 0.159998 45.6016 0.159998 47.3296 0.159998C49.0896 0.159998 50.8496 0.143998 52.6096 0.111999C54.3696 0.079999 55.9536 0.0479994 57.3616 0.0159998Z" fill="#F8F4F6"/>
</svg>
