<svg width="431" height="313" viewBox="0 0 431 313" fill="none" xmlns="http://www.w3.org/2000/svg">
<g clip-path="url(#clip0_33_177)">
<path d="M251.057 55.1782C259.134 55.1782 265.683 48.6397 265.683 40.5741C265.683 32.5085 259.134 25.97 251.057 25.97C242.979 25.97 236.431 32.5085 236.431 40.5741C236.431 48.6397 242.979 55.1782 251.057 55.1782Z" fill="#F2F2F2"/>
<path d="M364.515 271.92C386.255 255.387 396.639 227.603 390.138 201.099C389.977 200.441 389.806 199.784 389.627 199.128C385.317 183.396 374.655 168.444 359.116 163.417C346.068 159.196 331.826 162.442 318.214 160.763C291.492 157.468 270.776 135.88 256.199 113.277C241.623 90.6735 230.42 65.3724 211.051 46.6989C179.124 15.9187 127.043 9.29173 87.4585 29.3273C47.8737 49.363 22.6586 93.8137 23.734 138.114C24.8094 182.415 51.1481 224.77 89.3984 247.241C103.45 255.497 119.702 261.345 135.876 259.298C149.91 257.523 162.662 249.993 176.63 247.758C198.591 244.243 220.412 254.158 239.406 265.711C258.401 277.264 276.748 290.958 298.333 296.315C319.291 301.515 345.257 286.567 364.515 271.92Z" fill="#F2F2F2"/>
<path d="M333.28 30.2576C332.804 29.9404 332.322 29.6395 331.845 29.3332C318.069 20.5359 303.304 13.389 287.853 8.04023L284.271 57.3866H261.56V0.836812C260.13 0.541456 258.69 0.262509 257.249 -3.05176e-05V57.3866H230.26C215.403 57.3866 201.153 51.4933 190.648 41.003C180.142 30.5128 174.239 16.2849 174.239 1.44947C172.793 1.76123 171.358 2.09483 169.923 2.45035V57.3866H147.941L144.528 10.332C128.651 16.4121 113.577 24.4078 99.6434 34.141C99.4024 34.3051 99.1614 34.4746 98.9259 34.6387C97.7153 35.4865 96.5211 36.3507 95.3325 37.2258V225.483H160.118L158.973 209.648L152.674 122.71H279.533L273.233 209.648L272.088 225.483H336.156V32.161C335.203 31.5156 334.244 30.8811 333.28 30.2576ZM169.923 108.352H151.633L148.253 61.6966H169.923V108.352ZM257.249 108.352H226.53V107.428C226.53 106.983 226.442 106.543 226.272 106.133C226.101 105.722 225.852 105.349 225.537 105.036C225.222 104.722 224.848 104.473 224.436 104.303C224.025 104.134 223.584 104.047 223.139 104.047H209.785C209.34 104.047 208.9 104.135 208.489 104.304C208.078 104.474 207.705 104.723 207.39 105.037C207.076 105.351 206.827 105.724 206.657 106.134C206.487 106.544 206.399 106.984 206.399 107.428V108.352H174.239V61.6966H257.249V108.352ZM261.56 108.352V61.6966H283.959L280.579 108.352H261.56Z" fill="#3F3D56"/>
<path d="M0 237.538C4.75866 243.168 9.90568 248.459 15.4034 253.372L415.597 253.919C421.094 249.006 426.241 243.715 431 238.085L0 237.538Z" fill="#3F3D56"/>
<path d="M271.384 186.836V233.712C271.384 234.309 271.622 234.882 272.045 235.304C272.468 235.727 273.042 235.964 273.64 235.965H343.21C343.808 235.964 344.382 235.727 344.805 235.304C345.228 234.882 345.466 234.309 345.466 233.712V186.836C345.465 186.239 345.227 185.667 344.804 185.245C344.381 184.823 343.808 184.586 343.21 184.585H273.64C273.042 184.586 272.469 184.823 272.046 185.245C271.624 185.667 271.385 186.239 271.384 186.836Z" fill="#3F3D56"/>
<path d="M273.016 187.419V233.134C273.017 233.453 273.144 233.759 273.37 233.984C273.596 234.21 273.902 234.337 274.222 234.338H342.631C342.951 234.337 343.257 234.21 343.483 233.984C343.709 233.759 343.836 233.453 343.837 233.134V187.419C343.837 187.099 343.71 186.793 343.484 186.567C343.258 186.34 342.951 186.213 342.631 186.212H274.222C273.902 186.213 273.595 186.34 273.369 186.567C273.143 186.793 273.016 187.099 273.016 187.419Z" fill="#4B367C"/>
<path d="M269.929 242.854C270.056 243.014 270.218 243.142 270.403 243.23C270.587 243.318 270.789 243.364 270.994 243.363H345.486C345.69 243.362 345.891 243.317 346.075 243.229C346.259 243.142 346.421 243.014 346.549 242.856C346.678 242.698 346.769 242.514 346.817 242.316C346.865 242.118 346.868 241.912 346.826 241.713L345.67 236.229C345.622 236.005 345.519 235.797 345.37 235.623C345.221 235.45 345.031 235.316 344.816 235.234C344.662 235.174 344.497 235.143 344.33 235.143H272.145C271.979 235.143 271.814 235.174 271.659 235.234C271.445 235.316 271.255 235.45 271.106 235.623C270.956 235.797 270.853 236.005 270.805 236.229L269.649 241.713C269.608 241.912 269.612 242.118 269.66 242.315C269.708 242.512 269.8 242.697 269.929 242.854Z" fill="#2F2E41"/>
<path d="M341.774 237.505H343.534C343.681 237.505 343.801 237.386 343.801 237.238V236.398C343.801 236.25 343.681 236.131 343.534 236.131H341.774C341.626 236.131 341.507 236.25 341.507 236.398V237.238C341.507 237.386 341.626 237.505 341.774 237.505Z" fill="#3F3D56"/>
<path d="M337.185 237.505H338.945C339.093 237.505 339.212 237.386 339.212 237.238V236.398C339.212 236.25 339.093 236.131 338.945 236.131H337.185C337.038 236.131 336.918 236.25 336.918 236.398V237.238C336.918 237.386 337.038 237.505 337.185 237.505Z" fill="#3F3D56"/>
<path d="M332.597 237.505H334.356C334.504 237.505 334.624 237.386 334.624 237.238V236.398C334.624 236.25 334.504 236.131 334.356 236.131H332.597C332.449 236.131 332.329 236.25 332.329 236.398V237.238C332.329 237.386 332.449 237.505 332.597 237.505Z" fill="#3F3D56"/>
<path d="M328.008 237.505H329.767C329.915 237.505 330.035 237.386 330.035 237.238V236.398C330.035 236.25 329.915 236.131 329.767 236.131H328.008C327.86 236.131 327.741 236.25 327.741 236.398V237.238C327.741 237.386 327.86 237.505 328.008 237.505Z" fill="#3F3D56"/>
<path d="M323.419 237.505H325.179C325.327 237.505 325.446 237.386 325.446 237.238V236.398C325.446 236.25 325.327 236.131 325.179 236.131H323.419C323.272 236.131 323.152 236.25 323.152 236.398V237.238C323.152 237.386 323.272 237.505 323.419 237.505Z" fill="#3F3D56"/>
<path d="M318.831 237.505H320.59C320.738 237.505 320.858 237.386 320.858 237.238V236.398C320.858 236.25 320.738 236.131 320.59 236.131H318.831C318.683 236.131 318.563 236.25 318.563 236.398V237.238C318.563 237.386 318.683 237.505 318.831 237.505Z" fill="#3F3D56"/>
<path d="M314.242 237.505H316.001C316.149 237.505 316.269 237.386 316.269 237.238V236.398C316.269 236.25 316.149 236.131 316.001 236.131H314.242C314.094 236.131 313.974 236.25 313.974 236.398V237.238C313.974 237.386 314.094 237.505 314.242 237.505Z" fill="#3F3D56"/>
<path d="M309.653 237.505H311.413C311.56 237.505 311.68 237.386 311.68 237.238V236.398C311.68 236.25 311.56 236.131 311.413 236.131H309.653C309.506 236.131 309.386 236.25 309.386 236.398V237.238C309.386 237.386 309.506 237.505 309.653 237.505Z" fill="#3F3D56"/>
<path d="M305.065 237.505H306.824C306.972 237.505 307.091 237.386 307.091 237.238V236.398C307.091 236.25 306.972 236.131 306.824 236.131H305.065C304.917 236.131 304.797 236.25 304.797 236.398V237.238C304.797 237.386 304.917 237.505 305.065 237.505Z" fill="#3F3D56"/>
<path d="M300.476 237.505H302.235C302.383 237.505 302.503 237.386 302.503 237.238V236.398C302.503 236.25 302.383 236.131 302.235 236.131H300.476C300.328 236.131 300.208 236.25 300.208 236.398V237.238C300.208 237.386 300.328 237.505 300.476 237.505Z" fill="#3F3D56"/>
<path d="M295.887 237.505H297.647C297.794 237.505 297.914 237.386 297.914 237.238V236.398C297.914 236.25 297.794 236.131 297.647 236.131H295.887C295.739 236.131 295.62 236.25 295.62 236.398V237.238C295.62 237.386 295.739 237.505 295.887 237.505Z" fill="#3F3D56"/>
<path d="M291.298 237.505H293.058C293.206 237.505 293.325 237.386 293.325 237.238V236.398C293.325 236.25 293.206 236.131 293.058 236.131H291.298C291.151 236.131 291.031 236.25 291.031 236.398V237.238C291.031 237.386 291.151 237.505 291.298 237.505Z" fill="#3F3D56"/>
<path d="M286.71 237.505H288.469C288.617 237.505 288.737 237.386 288.737 237.238V236.398C288.737 236.25 288.617 236.131 288.469 236.131H286.71C286.562 236.131 286.442 236.25 286.442 236.398V237.238C286.442 237.386 286.562 237.505 286.71 237.505Z" fill="#3F3D56"/>
<path d="M282.121 237.505H283.881C284.028 237.505 284.148 237.386 284.148 237.238V236.398C284.148 236.25 284.028 236.131 283.881 236.131H282.121C281.973 236.131 281.854 236.25 281.854 236.398V237.238C281.854 237.386 281.973 237.505 282.121 237.505Z" fill="#3F3D56"/>
<path d="M277.532 237.505H279.292C279.44 237.505 279.559 237.386 279.559 237.238V236.398C279.559 236.25 279.44 236.131 279.292 236.131H277.532C277.385 236.131 277.265 236.25 277.265 236.398V237.238C277.265 237.386 277.385 237.505 277.532 237.505Z" fill="#3F3D56"/>
<path d="M272.944 237.505H274.703C274.851 237.505 274.97 237.386 274.97 237.238V236.398C274.97 236.25 274.851 236.131 274.703 236.131H272.944C272.796 236.131 272.676 236.25 272.676 236.398V237.238C272.676 237.386 272.796 237.505 272.944 237.505Z" fill="#3F3D56"/>
<path d="M341.828 239.796H343.588C343.735 239.796 343.855 239.676 343.855 239.529V238.688C343.855 238.541 343.735 238.421 343.588 238.421H341.828C341.681 238.421 341.561 238.541 341.561 238.688V239.529C341.561 239.676 341.681 239.796 341.828 239.796Z" fill="#3F3D56"/>
<path d="M337.24 239.796H338.999C339.147 239.796 339.267 239.676 339.267 239.529V238.688C339.267 238.541 339.147 238.421 338.999 238.421H337.24C337.092 238.421 336.972 238.541 336.972 238.688V239.529C336.972 239.676 337.092 239.796 337.24 239.796Z" fill="#3F3D56"/>
<path d="M332.651 239.796H334.41C334.558 239.796 334.678 239.676 334.678 239.529V238.688C334.678 238.541 334.558 238.421 334.41 238.421H332.651C332.503 238.421 332.383 238.541 332.383 238.688V239.529C332.383 239.676 332.503 239.796 332.651 239.796Z" fill="#3F3D56"/>
<path d="M328.062 239.796H329.822C329.969 239.796 330.089 239.676 330.089 239.529V238.688C330.089 238.541 329.969 238.421 329.822 238.421H328.062C327.914 238.421 327.795 238.541 327.795 238.688V239.529C327.795 239.676 327.914 239.796 328.062 239.796Z" fill="#3F3D56"/>
<path d="M323.474 239.796H325.233C325.381 239.796 325.5 239.676 325.5 239.529V238.688C325.5 238.541 325.381 238.421 325.233 238.421H323.474C323.326 238.421 323.206 238.541 323.206 238.688V239.529C323.206 239.676 323.326 239.796 323.474 239.796Z" fill="#3F3D56"/>
<path d="M318.885 239.796H320.644C320.792 239.796 320.912 239.676 320.912 239.529V238.688C320.912 238.541 320.792 238.421 320.644 238.421H318.885C318.737 238.421 318.617 238.541 318.617 238.688V239.529C318.617 239.676 318.737 239.796 318.885 239.796Z" fill="#3F3D56"/>
<path d="M314.296 239.796H316.056C316.203 239.796 316.323 239.676 316.323 239.529V238.688C316.323 238.541 316.203 238.421 316.056 238.421H314.296C314.148 238.421 314.029 238.541 314.029 238.688V239.529C314.029 239.676 314.148 239.796 314.296 239.796Z" fill="#3F3D56"/>
<path d="M309.707 239.796H311.467C311.615 239.796 311.734 239.676 311.734 239.529V238.688C311.734 238.541 311.615 238.421 311.467 238.421H309.707C309.56 238.421 309.44 238.541 309.44 238.688V239.529C309.44 239.676 309.56 239.796 309.707 239.796Z" fill="#3F3D56"/>
<path d="M305.119 239.796H306.878C307.026 239.796 307.146 239.676 307.146 239.529V238.688C307.146 238.541 307.026 238.421 306.878 238.421H305.119C304.971 238.421 304.851 238.541 304.851 238.688V239.529C304.851 239.676 304.971 239.796 305.119 239.796Z" fill="#3F3D56"/>
<path d="M300.53 239.796H302.29C302.437 239.796 302.557 239.676 302.557 239.529V238.688C302.557 238.541 302.437 238.421 302.29 238.421H300.53C300.382 238.421 300.263 238.541 300.263 238.688V239.529C300.263 239.676 300.382 239.796 300.53 239.796Z" fill="#3F3D56"/>
<path d="M295.941 239.796H297.701C297.849 239.796 297.968 239.676 297.968 239.529V238.688C297.968 238.541 297.849 238.421 297.701 238.421H295.941C295.794 238.421 295.674 238.541 295.674 238.688V239.529C295.674 239.676 295.794 239.796 295.941 239.796Z" fill="#3F3D56"/>
<path d="M291.353 239.796H293.112C293.26 239.796 293.38 239.676 293.38 239.529V238.688C293.38 238.541 293.26 238.421 293.112 238.421H291.353C291.205 238.421 291.085 238.541 291.085 238.688V239.529C291.085 239.676 291.205 239.796 291.353 239.796Z" fill="#3F3D56"/>
<path d="M286.764 239.796H288.523C288.671 239.796 288.791 239.676 288.791 239.529V238.688C288.791 238.541 288.671 238.421 288.523 238.421H286.764C286.616 238.421 286.497 238.541 286.497 238.688V239.529C286.497 239.676 286.616 239.796 286.764 239.796Z" fill="#3F3D56"/>
<path d="M282.175 239.796H283.935C284.082 239.796 284.202 239.676 284.202 239.529V238.688C284.202 238.541 284.082 238.421 283.935 238.421H282.175C282.028 238.421 281.908 238.541 281.908 238.688V239.529C281.908 239.676 282.028 239.796 282.175 239.796Z" fill="#3F3D56"/>
<path d="M277.587 239.796H279.346C279.494 239.796 279.614 239.676 279.614 239.529V238.688C279.614 238.541 279.494 238.421 279.346 238.421H277.587C277.439 238.421 277.319 238.541 277.319 238.688V239.529C277.319 239.676 277.439 239.796 277.587 239.796Z" fill="#3F3D56"/>
<path d="M272.998 239.796H274.757C274.905 239.796 275.025 239.676 275.025 239.529V238.688C275.025 238.541 274.905 238.421 274.757 238.421H272.998C272.85 238.421 272.73 238.541 272.73 238.688V239.529C272.73 239.676 272.85 239.796 272.998 239.796Z" fill="#3F3D56"/>
<path d="M303.742 242.545H321.562C321.71 242.545 321.829 242.426 321.829 242.278V241.438C321.829 241.29 321.71 241.171 321.562 241.171H303.742C303.594 241.171 303.475 241.29 303.475 241.438V242.278C303.475 242.426 303.594 242.545 303.742 242.545Z" fill="#3F3D56"/>
<path d="M284.862 196.214H283.305C282.832 196.214 282.45 196.596 282.45 197.067C282.45 197.539 282.832 197.921 283.305 197.921H284.862C285.335 197.921 285.718 197.539 285.718 197.067C285.718 196.596 285.335 196.214 284.862 196.214Z" fill="white"/>
<path d="M302.678 196.214H301.12C300.648 196.214 300.265 196.596 300.265 197.067C300.265 197.539 300.648 197.921 301.12 197.921H302.678C303.15 197.921 303.533 197.539 303.533 197.067C303.533 196.596 303.15 196.214 302.678 196.214Z" fill="white"/>
<path d="M307.725 196.214H306.168C305.695 196.214 305.312 196.596 305.312 197.067C305.312 197.539 305.695 197.921 306.168 197.921H307.725C308.198 197.921 308.58 197.539 308.58 197.067C308.58 196.596 308.198 196.214 307.725 196.214Z" fill="white"/>
<path d="M297.832 196.071H288.151C287.678 196.071 287.295 196.453 287.295 196.925C287.295 197.397 287.678 197.779 288.151 197.779H297.832C298.304 197.779 298.687 197.397 298.687 196.925C298.687 196.453 298.304 196.071 297.832 196.071Z" fill="white"/>
<path d="M321.586 196.071H311.904C311.432 196.071 311.049 196.453 311.049 196.925C311.049 197.397 311.432 197.779 311.904 197.779H321.586C322.058 197.779 322.441 197.397 322.441 196.925C322.441 196.453 322.058 196.071 321.586 196.071Z" fill="white"/>
<path d="M289.613 200.068H288.055C287.583 200.068 287.2 200.45 287.2 200.922C287.2 201.393 287.583 201.775 288.055 201.775H289.613C290.085 201.775 290.468 201.393 290.468 200.922C290.468 200.45 290.085 200.068 289.613 200.068Z" fill="white"/>
<path d="M307.428 200.068H305.871C305.398 200.068 305.016 200.45 305.016 200.922C305.016 201.393 305.398 201.775 305.871 201.775H307.428C307.901 201.775 308.284 201.393 308.284 200.922C308.284 200.45 307.901 200.068 307.428 200.068Z" fill="white"/>
<path d="M312.476 200.068H310.918C310.446 200.068 310.063 200.45 310.063 200.922C310.063 201.393 310.446 201.775 310.918 201.775H312.476C312.948 201.775 313.331 201.393 313.331 200.922C313.331 200.45 312.948 200.068 312.476 200.068Z" fill="white"/>
<path d="M302.583 199.925H292.901C292.429 199.925 292.046 200.308 292.046 200.779C292.046 201.251 292.429 201.633 292.901 201.633H302.583C303.055 201.633 303.438 201.251 303.438 200.779C303.438 200.308 303.055 199.925 302.583 199.925Z" fill="white"/>
<path d="M326.336 199.925H316.655C316.183 199.925 315.8 200.308 315.8 200.779C315.8 201.251 316.183 201.633 316.655 201.633H326.336C326.809 201.633 327.191 201.251 327.191 200.779C327.191 200.308 326.809 199.925 326.336 199.925Z" fill="white"/>
<path d="M294.364 203.922H292.806C292.334 203.922 291.951 204.304 291.951 204.776C291.951 205.247 292.334 205.63 292.806 205.63H294.364C294.836 205.63 295.219 205.247 295.219 204.776C295.219 204.304 294.836 203.922 294.364 203.922Z" fill="white"/>
<path d="M312.179 203.922H310.621C310.149 203.922 309.766 204.304 309.766 204.776C309.766 205.247 310.149 205.63 310.621 205.63H312.179C312.651 205.63 313.034 205.247 313.034 204.776C313.034 204.304 312.651 203.922 312.179 203.922Z" fill="white"/>
<path d="M317.227 203.922H315.669C315.197 203.922 314.814 204.304 314.814 204.776C314.814 205.247 315.197 205.63 315.669 205.63H317.227C317.699 205.63 318.082 205.247 318.082 204.776C318.082 204.304 317.699 203.922 317.227 203.922Z" fill="white"/>
<path d="M307.333 203.78H297.652C297.18 203.78 296.797 204.162 296.797 204.633C296.797 205.105 297.18 205.487 297.652 205.487H307.333C307.806 205.487 308.188 205.105 308.188 204.633C308.188 204.162 307.806 203.78 307.333 203.78Z" fill="white"/>
<path d="M331.087 203.78H321.406C320.933 203.78 320.551 204.162 320.551 204.633C320.551 205.105 320.933 205.487 321.406 205.487H331.087C331.559 205.487 331.942 205.105 331.942 204.633C331.942 204.162 331.559 203.78 331.087 203.78Z" fill="white"/>
<path d="M299.115 207.776H297.557C297.085 207.776 296.702 208.158 296.702 208.63C296.702 209.102 297.085 209.484 297.557 209.484H299.115C299.587 209.484 299.97 209.102 299.97 208.63C299.97 208.158 299.587 207.776 299.115 207.776Z" fill="white"/>
<path d="M316.93 207.776H315.372C314.9 207.776 314.517 208.158 314.517 208.63C314.517 209.102 314.9 209.484 315.372 209.484H316.93C317.402 209.484 317.785 209.102 317.785 208.63C317.785 208.158 317.402 207.776 316.93 207.776Z" fill="white"/>
<path d="M321.978 207.776H320.42C319.948 207.776 319.565 208.158 319.565 208.63C319.565 209.102 319.948 209.484 320.42 209.484H321.978C322.45 209.484 322.833 209.102 322.833 208.63C322.833 208.158 322.45 207.776 321.978 207.776Z" fill="white"/>
<path d="M312.084 207.634H302.403C301.93 207.634 301.548 208.016 301.548 208.488C301.548 208.959 301.93 209.341 302.403 209.341H312.084C312.556 209.341 312.939 208.959 312.939 208.488C312.939 208.016 312.556 207.634 312.084 207.634Z" fill="white"/>
<path d="M302.678 223.102H301.12C300.648 223.102 300.265 223.484 300.265 223.956C300.265 224.428 300.648 224.81 301.12 224.81H302.678C303.15 224.81 303.533 224.428 303.533 223.956C303.533 223.484 303.15 223.102 302.678 223.102Z" fill="white"/>
<path d="M307.725 223.102H306.168C305.695 223.102 305.312 223.484 305.312 223.956C305.312 224.428 305.695 224.81 306.168 224.81H307.725C308.198 224.81 308.58 224.428 308.58 223.956C308.58 223.484 308.198 223.102 307.725 223.102Z" fill="white"/>
<path d="M321.586 223.244H311.904C311.432 223.244 311.049 223.627 311.049 224.098C311.049 224.57 311.432 224.952 311.904 224.952H321.586C322.058 224.952 322.441 224.57 322.441 224.098C322.441 223.627 322.058 223.244 321.586 223.244Z" fill="white"/>
<path d="M284.862 223.102H283.305C282.832 223.102 282.45 223.484 282.45 223.956C282.45 224.428 282.832 224.81 283.305 224.81H284.862C285.335 224.81 285.718 224.428 285.718 223.956C285.718 223.484 285.335 223.102 284.862 223.102Z" fill="white"/>
<path d="M297.832 223.244H288.151C287.678 223.244 287.295 223.627 287.295 224.098C287.295 224.57 287.678 224.952 288.151 224.952H297.832C298.304 224.952 298.687 224.57 298.687 224.098C298.687 223.627 298.304 223.244 297.832 223.244Z" fill="white"/>
<path d="M289.613 219.248H288.055C287.583 219.248 287.2 219.63 287.2 220.102C287.2 220.573 287.583 220.956 288.055 220.956H289.613C290.085 220.956 290.468 220.573 290.468 220.102C290.468 219.63 290.085 219.248 289.613 219.248Z" fill="white"/>
<path d="M307.428 219.248H305.871C305.398 219.248 305.016 219.63 305.016 220.102C305.016 220.573 305.398 220.956 305.871 220.956H307.428C307.901 220.956 308.284 220.573 308.284 220.102C308.284 219.63 307.901 219.248 307.428 219.248Z" fill="white"/>
<path d="M312.476 219.248H310.918C310.446 219.248 310.063 219.63 310.063 220.102C310.063 220.573 310.446 220.956 310.918 220.956H312.476C312.948 220.956 313.331 220.573 313.331 220.102C313.331 219.63 312.948 219.248 312.476 219.248Z" fill="white"/>
<path d="M302.583 219.39H292.901C292.429 219.39 292.046 219.773 292.046 220.244C292.046 220.716 292.429 221.098 292.901 221.098H302.583C303.055 221.098 303.438 220.716 303.438 220.244C303.438 219.773 303.055 219.39 302.583 219.39Z" fill="white"/>
<path d="M294.364 215.394H292.806C292.334 215.394 291.951 215.776 291.951 216.248C291.951 216.719 292.334 217.101 292.806 217.101H294.364C294.836 217.101 295.219 216.719 295.219 216.248C295.219 215.776 294.836 215.394 294.364 215.394Z" fill="white"/>
<path d="M312.179 215.394H310.621C310.149 215.394 309.766 215.776 309.766 216.248C309.766 216.719 310.149 217.101 310.621 217.101H312.179C312.651 217.101 313.034 216.719 313.034 216.248C313.034 215.776 312.651 215.394 312.179 215.394Z" fill="white"/>
<path d="M317.227 215.394H315.669C315.197 215.394 314.814 215.776 314.814 216.248C314.814 216.719 315.197 217.101 315.669 217.101H317.227C317.699 217.101 318.082 216.719 318.082 216.248C318.082 215.776 317.699 215.394 317.227 215.394Z" fill="white"/>
<path d="M307.333 215.536H297.652C297.18 215.536 296.797 215.918 296.797 216.39C296.797 216.861 297.18 217.244 297.652 217.244H307.333C307.806 217.244 308.188 216.861 308.188 216.39C308.188 215.918 307.806 215.536 307.333 215.536Z" fill="white"/>
<path d="M299.115 211.539H297.557C297.085 211.539 296.702 211.922 296.702 212.393C296.702 212.865 297.085 213.247 297.557 213.247H299.115C299.587 213.247 299.97 212.865 299.97 212.393C299.97 211.922 299.587 211.539 299.115 211.539Z" fill="white"/>
<path d="M316.93 211.539H315.372C314.9 211.539 314.517 211.922 314.517 212.393C314.517 212.865 314.9 213.247 315.372 213.247H316.93C317.402 213.247 317.785 212.865 317.785 212.393C317.785 211.922 317.402 211.539 316.93 211.539Z" fill="white"/>
<path d="M321.978 211.539H320.42C319.948 211.539 319.565 211.922 319.565 212.393C319.565 212.865 319.948 213.247 320.42 213.247H321.978C322.45 213.247 322.833 212.865 322.833 212.393C322.833 211.922 322.45 211.539 321.978 211.539Z" fill="white"/>
<path d="M312.084 211.682H302.403C301.93 211.682 301.548 212.064 301.548 212.536C301.548 213.007 301.93 213.39 302.403 213.39H312.084C312.556 213.39 312.939 213.007 312.939 212.536C312.939 212.064 312.556 211.682 312.084 211.682Z" fill="white"/>
<path d="M276.581 268.272L269.268 256.73L292.221 238.46L301.695 227.98C302.926 226.619 304.493 225.603 306.24 225.036C307.987 224.469 309.852 224.369 311.65 224.747C313.447 225.125 315.114 225.968 316.483 227.19C317.853 228.413 318.877 229.973 319.453 231.715C320.307 234.296 320.123 237.107 318.941 239.555C317.758 242.003 315.669 243.897 313.115 244.837L298.134 250.348L276.581 268.272Z" fill="#FFB6B6"/>
<path d="M105.003 184.587V240.683H144.361V184.587C144.361 184.184 144.232 183.791 143.993 183.466C143.753 183.141 143.415 182.901 143.029 182.782C142.847 182.722 142.657 182.693 142.465 182.695H106.904C106.654 182.694 106.407 182.743 106.177 182.838C105.947 182.933 105.737 183.072 105.561 183.248C105.384 183.423 105.244 183.632 105.148 183.862C105.053 184.092 105.003 184.338 105.003 184.587ZM120.363 203.862C120.373 202.756 120.82 201.699 121.607 200.921C122.394 200.142 123.456 199.706 124.564 199.706C125.672 199.706 126.734 200.142 127.521 200.921C128.308 201.699 128.755 202.756 128.765 203.862V210.371C128.76 211.48 128.315 212.541 127.527 213.323C126.74 214.106 125.675 214.545 124.564 214.545C123.453 214.545 122.388 214.106 121.601 213.323C120.813 212.541 120.368 211.48 120.363 210.371V203.862Z" fill="#2F2E41"/>
<path d="M104.882 238.889V244.299C104.883 244.579 104.995 244.847 105.193 245.046C105.391 245.245 105.659 245.357 105.94 245.36H143.424C143.705 245.358 143.974 245.246 144.172 245.047C144.37 244.848 144.481 244.579 144.481 244.299V238.889H104.882Z" fill="#3F3D56"/>
<path d="M43.088 100.072V202.495C43.089 203.8 43.6087 205.051 44.533 205.974C45.4574 206.897 46.7107 207.416 48.0179 207.417H200.025C201.333 207.416 202.586 206.897 203.51 205.974C204.435 205.051 204.954 203.8 204.955 202.495V100.072C204.952 98.7675 204.432 97.5178 203.508 96.5962C202.584 95.6745 201.331 95.1561 200.025 95.1545H48.0179C46.7119 95.1561 45.4597 95.6746 44.5357 96.5962C43.6116 97.5178 43.0911 98.7675 43.088 100.072Z" fill="#3F3D56"/>
<path d="M46.6539 101.346V201.231C46.6551 201.929 46.9331 202.597 47.427 203.09C47.9208 203.583 48.5903 203.861 49.2887 203.862H198.76C199.458 203.861 200.128 203.583 200.622 203.09C201.116 202.597 201.394 201.929 201.395 201.231V101.346C201.395 100.648 201.117 99.9781 200.623 99.4838C200.129 98.9896 199.459 98.7112 198.76 98.7097H49.2887C48.5895 98.7112 47.9193 98.9896 47.4254 99.4838C46.9314 99.9781 46.654 100.648 46.6539 101.346Z" fill="white"/>
<path d="M74.3932 244.993C74.5454 245.184 74.7388 245.337 74.9589 245.442C75.179 245.547 75.4201 245.601 75.6641 245.6H164.59C164.833 245.6 165.073 245.546 165.293 245.441C165.512 245.336 165.705 245.184 165.859 244.996C166.012 244.807 166.121 244.587 166.178 244.351C166.235 244.115 166.239 243.869 166.189 243.631L164.809 237.084C164.752 236.817 164.629 236.569 164.451 236.361C164.273 236.154 164.046 235.995 163.79 235.897C163.605 235.825 163.408 235.788 163.209 235.788H77.039C76.8403 235.788 76.6433 235.825 76.4584 235.897C76.2029 235.995 75.9758 236.154 75.7978 236.361C75.6199 236.569 75.4967 236.817 75.4395 237.084L74.0591 243.631C74.01 243.869 74.0145 244.114 74.0723 244.35C74.1301 244.585 74.2397 244.805 74.3932 244.993Z" fill="#2F2E41"/>
<path d="M193.909 112.469H54.0495C53.9041 112.466 53.7658 112.406 53.6641 112.302C53.5625 112.199 53.5056 112.059 53.5056 111.914C53.5056 111.769 53.5625 111.629 53.6641 111.526C53.7658 111.422 53.9041 111.362 54.0495 111.359H193.909C194.055 111.362 194.193 111.422 194.295 111.526C194.396 111.629 194.453 111.769 194.453 111.914C194.453 112.059 194.396 112.199 194.295 112.302C194.193 112.406 194.055 112.466 193.909 112.469Z" fill="#3F3D56"/>
<path d="M63.57 108.523C65.3701 108.523 66.8295 107.033 66.8295 105.196C66.8295 103.358 65.3701 101.869 63.57 101.869C61.7698 101.869 60.3105 103.358 60.3105 105.196C60.3105 107.033 61.7698 108.523 63.57 108.523Z" fill="#3F3D56"/>
<path d="M74.83 108.523C76.6302 108.523 78.0895 107.033 78.0895 105.196C78.0895 103.358 76.6302 101.869 74.83 101.869C73.0299 101.869 71.5706 103.358 71.5706 105.196C71.5706 107.033 73.0299 108.523 74.83 108.523Z" fill="#3F3D56"/>
<path d="M86.0901 108.523C87.8903 108.523 89.3496 107.033 89.3496 105.196C89.3496 103.358 87.8903 101.869 86.0901 101.869C84.2899 101.869 82.8306 103.358 82.8306 105.196C82.8306 107.033 84.2899 108.523 86.0901 108.523Z" fill="#3F3D56"/>
<path d="M187.129 102.692H179.131C178.973 102.695 178.823 102.76 178.712 102.873C178.602 102.986 178.54 103.138 178.54 103.296C178.54 103.454 178.602 103.605 178.712 103.718C178.823 103.831 178.973 103.897 179.131 103.9H187.129C187.288 103.898 187.44 103.833 187.551 103.72C187.663 103.607 187.726 103.455 187.726 103.296C187.726 103.137 187.663 102.985 187.551 102.872C187.44 102.758 187.288 102.694 187.129 102.692Z" fill="#3F3D56"/>
<path d="M187.129 104.961H179.131C178.973 104.965 178.822 105.03 178.712 105.143C178.601 105.256 178.539 105.408 178.539 105.566C178.539 105.724 178.601 105.876 178.712 105.989C178.822 106.101 178.973 106.167 179.131 106.17H187.129C187.288 106.168 187.44 106.104 187.552 105.991C187.664 105.877 187.727 105.725 187.727 105.566C187.727 105.407 187.664 105.254 187.552 105.141C187.44 105.028 187.288 104.963 187.129 104.961Z" fill="#3F3D56"/>
<path d="M187.129 107.231H179.131C178.973 107.235 178.823 107.3 178.712 107.413C178.602 107.526 178.54 107.678 178.54 107.836C178.54 107.994 178.602 108.145 178.712 108.258C178.823 108.371 178.973 108.436 179.131 108.44H187.129C187.288 108.438 187.44 108.373 187.551 108.26C187.663 108.147 187.726 107.994 187.726 107.836C187.726 107.677 187.663 107.524 187.551 107.411C187.44 107.298 187.288 107.233 187.129 107.231Z" fill="#3F3D56"/>
<path d="M379.934 241.263C380.175 241.965 380.633 242.572 381.242 242.998C381.85 243.423 382.578 243.645 383.321 243.632L397.833 243.259C398.581 243.245 399.304 242.989 399.895 242.529C400.485 242.07 400.911 241.433 401.109 240.712L403.162 218.786C403.891 219.116 404.684 219.278 405.484 219.262C406.179 219.245 406.863 219.091 407.498 218.809C408.134 218.528 408.707 218.124 409.186 217.621C409.665 217.118 410.04 216.526 410.29 215.879C410.539 215.231 410.659 214.541 410.642 213.847C410.624 213.153 410.47 212.47 410.188 211.835C409.906 211.201 409.502 210.629 408.998 210.15C408.494 209.672 407.901 209.298 407.253 209.048C406.604 208.799 405.913 208.68 405.218 208.697C404.899 208.696 404.58 208.729 404.267 208.796C403.927 208.428 403.514 208.136 403.054 207.938C402.594 207.74 402.098 207.64 401.597 207.645L379.275 208.221C379.09 208.228 378.906 208.251 378.725 208.289C378.235 208.38 377.771 208.575 377.363 208.86C376.955 209.146 376.613 209.515 376.36 209.943C376.107 210.372 375.949 210.849 375.897 211.343C375.844 211.838 375.898 212.338 376.055 212.81L379.934 241.263ZM403.583 217.297L405.045 212.072C405.211 211.469 405.215 210.832 405.056 210.227C405.127 210.226 405.189 210.193 405.26 210.193C406.262 210.172 407.231 210.549 407.956 211.241C408.68 211.932 409.099 212.883 409.123 213.883C409.146 214.883 408.772 215.852 408.081 216.577C407.39 217.302 406.439 217.724 405.437 217.75C404.79 217.77 404.149 217.614 403.583 217.297Z" fill="#2F2E41"/>
<path d="M378.725 208.289C379.2 211.004 384.547 212.913 390.976 212.581C396.888 212.309 401.722 210.237 402.608 207.78C402.28 207.683 401.939 207.638 401.597 207.645L379.275 208.221C379.09 208.228 378.906 208.251 378.725 208.289Z" fill="#3F3D56"/>
<path d="M392.154 229.215C392.184 229.207 392.212 229.195 392.237 229.178L395.388 227.119C395.426 227.094 395.458 227.06 395.479 227.02C395.501 226.98 395.512 226.935 395.512 226.89C395.512 226.845 395.501 226.8 395.479 226.76C395.458 226.72 395.427 226.686 395.388 226.661L392.113 224.519C392.083 224.499 392.049 224.485 392.014 224.479C391.978 224.472 391.942 224.472 391.907 224.479C391.871 224.486 391.838 224.501 391.808 224.521C391.778 224.541 391.753 224.567 391.733 224.597C391.713 224.627 391.7 224.661 391.693 224.696C391.686 224.732 391.687 224.768 391.694 224.803C391.701 224.838 391.716 224.872 391.736 224.902C391.756 224.931 391.783 224.957 391.813 224.976L394.738 226.89L391.937 228.721C391.883 228.756 391.843 228.81 391.824 228.872C391.806 228.934 391.81 229 391.836 229.059C391.862 229.119 391.908 229.167 391.967 229.195C392.025 229.224 392.091 229.231 392.154 229.215Z" fill="#4B367C"/>
<path d="M387.177 229.444C387.23 229.43 387.277 229.402 387.314 229.361C387.35 229.32 387.373 229.27 387.381 229.216C387.388 229.162 387.379 229.107 387.355 229.058C387.331 229.009 387.293 228.969 387.246 228.942L384.341 227.279L387.149 225.196C387.177 225.175 387.202 225.148 387.22 225.117C387.239 225.086 387.251 225.052 387.256 225.017C387.261 224.981 387.259 224.945 387.251 224.91C387.242 224.875 387.226 224.843 387.205 224.814C387.184 224.785 387.157 224.761 387.126 224.742C387.095 224.724 387.061 224.712 387.025 224.706C386.99 224.701 386.953 224.703 386.919 224.712C386.884 224.721 386.851 224.736 386.822 224.757L383.679 227.089C383.642 227.116 383.613 227.152 383.594 227.193C383.574 227.234 383.566 227.279 383.568 227.325C383.571 227.37 383.585 227.414 383.609 227.452C383.633 227.491 383.666 227.523 383.706 227.546L386.973 229.416C387.035 229.451 387.108 229.461 387.177 229.444Z" fill="#4B367C"/>
<path d="M391.841 231.02C391.867 231.013 391.893 231.002 391.916 230.988C391.947 230.969 391.973 230.945 391.995 230.916C392.016 230.887 392.031 230.854 392.04 230.819C392.048 230.784 392.05 230.748 392.044 230.712C392.039 230.677 392.026 230.643 392.008 230.612L387.54 223.278C387.502 223.216 387.441 223.172 387.371 223.155C387.3 223.138 387.226 223.15 387.164 223.187C387.102 223.225 387.057 223.286 387.04 223.356C387.023 223.427 387.035 223.501 387.072 223.563L391.54 230.897C391.57 230.947 391.616 230.986 391.67 231.008C391.724 231.03 391.784 231.034 391.841 231.02Z" fill="#4B367C"/>
<path d="M140.69 142.661H116.484C115.496 142.661 114.696 143.46 114.696 144.446V146.808C114.696 147.794 115.496 148.593 116.484 148.593H140.69C141.678 148.593 142.478 147.794 142.478 146.808V144.446C142.478 143.46 141.678 142.661 140.69 142.661Z" fill="#4B367C"/>
<path d="M154.8 154.525H102.374C101.386 154.525 100.586 155.325 100.586 156.311V158.672C100.586 159.658 101.386 160.457 102.374 160.457H154.8C155.788 160.457 156.588 159.658 156.588 158.672V156.311C156.588 155.325 155.788 154.525 154.8 154.525Z" fill="#E6E6E6"/>
<path d="M154.8 166.39H102.374C101.386 166.39 100.586 167.189 100.586 168.175V170.536C100.586 171.522 101.386 172.322 102.374 172.322H154.8C155.788 172.322 156.588 171.522 156.588 170.536V168.175C156.588 167.189 155.788 166.39 154.8 166.39Z" fill="#E6E6E6"/>
<path d="M159.244 206.118L159.363 206.493L159.369 206.505L162.944 217.356L167.055 229.86L174.791 253.358L174.866 257.008V257.02L175.441 286.383L173.848 290.364L175.641 296.89C175.641 296.89 174.816 287.025 170.392 292.69C167.886 295.91 164.956 299.205 162.55 302.293C166.056 303.709 169.617 304.991 173.235 306.137C174.017 306.386 174.804 306.623 175.591 306.86C175.76 306.91 175.929 306.96 176.097 307.01C188.091 310.552 200.49 312.542 212.99 312.931C213.64 312.95 214.278 312.963 214.896 312.975C215.115 312.981 215.328 312.988 215.54 312.988C216.24 312.994 216.933 313 217.633 313C219.046 313 220.452 312.979 221.851 312.938C232.211 312.646 242.511 311.255 252.577 308.788C252.508 304.639 252.321 299.791 252.052 294.612C251.927 292.073 249.121 289.321 248.952 286.663C248.834 284.666 251.352 282.788 251.221 280.761C250.371 268.275 249.309 273.068 248.521 264.227C248.44 263.359 248.365 262.53 248.296 261.737C247.79 256.059 247.44 252.509 247.44 252.509L250.802 231.351L256.082 198.132L255.676 197.464L255.22 197.239L227.369 183.475L225.857 179.607C225.416 178.492 224.652 177.535 223.662 176.858C222.672 176.18 221.502 175.814 220.302 175.807L201.955 175.732C201.003 175.728 200.063 175.95 199.215 176.381C198.366 176.812 197.632 177.438 197.075 178.209L192.107 185.079L159.244 206.118Z" fill="#3F3D56"/>
<path d="M179.022 248.129L174.866 257.008L172.029 263.072L167.149 288.586L164.706 291.175L162.612 282.008L140.703 286.866C139.984 282.879 140.51 287.001 140.067 282.627C140.192 282.502 140.323 282.377 140.454 282.253C140.804 281.928 141.098 281.622 141.091 281.329C140.841 266.242 141.591 240.566 147.853 225.011C148.833 222.472 150.126 220.063 151.702 217.842C151.827 217.674 151.946 217.505 152.064 217.337C154.951 213.3 156.776 209.325 159.363 206.499V206.493C159.379 206.48 159.394 206.465 159.407 206.449C159.416 206.444 159.425 206.438 159.432 206.43L177.203 197.021L177.966 218.41L178.509 233.784L179.022 248.129Z" fill="#3F3D56"/>
<path d="M243.103 250.651L248.294 261.74L250.106 265.602L254.984 291.113L257.42 293.696L259.518 284.532L260.504 284.33L278.284 280.653L283.466 297.087C284.634 295.144 285.094 292.857 284.769 290.615C284.443 288.372 283.352 286.31 281.68 284.777C281.326 284.458 281.031 284.146 281.039 283.852C281.334 266.107 280.247 233.705 270.43 220.369C267.312 216.137 265.442 211.921 262.72 208.976C262.712 208.968 262.712 208.96 262.703 208.96L256.08 198.131L255.675 197.466L255.22 197.239L243.103 250.651Z" fill="#3F3D56"/>
<path d="M211.658 170.518C225.138 170.518 236.066 159.607 236.066 146.147C236.066 132.687 225.138 121.776 211.658 121.776C198.178 121.776 187.25 132.687 187.25 146.147C187.25 159.607 198.178 170.518 211.658 170.518Z" fill="#FFB6B6"/>
<path d="M244.648 129.124C244.459 128.922 244.231 128.76 243.978 128.648C243.725 128.537 243.452 128.477 243.175 128.473L243.542 127.455C243.662 127.135 243.694 126.789 243.635 126.452C243.577 126.114 243.43 125.799 243.209 125.537C242.988 125.276 242.702 125.078 242.379 124.963C242.057 124.848 241.709 124.821 241.373 124.885L240.036 125.142L240.162 124.25C240.21 123.918 240.171 123.579 240.049 123.267C239.926 122.955 239.724 122.679 239.463 122.469C239.201 122.258 238.889 122.119 238.558 122.065C238.226 122.011 237.886 122.044 237.571 122.161C237.285 122.274 236.976 122.321 236.669 122.299C236.362 122.277 236.064 122.187 235.796 122.035C235.528 121.888 235.294 121.684 235.113 121.437C234.931 121.191 234.805 120.908 234.745 120.608L234.279 118.365L234.23 118.245C231.962 114.471 227.602 111.725 222.266 110.719C217.517 109.816 212.647 110.276 207.953 110.708C206.09 110.883 203.987 111.08 202.234 112.152C200.744 113.07 199.484 114.908 199.742 116.762C195.113 115.346 190.15 118.174 187.691 121.74C184.777 125.984 184.3 131.301 184.223 135.457C184.015 145.292 186.047 153.337 190.249 159.376C190.556 159.813 190.632 160.727 191.24 161.033L191.114 160.831C191.794 161.17 192.484 161.717 192.226 162.302C191.487 163.987 196.4 167.711 199.862 168.942C206.178 171.19 214.576 170.999 220.481 170.189L220.689 168.794C222.82 168.505 224.32 167.952 224.742 167.088C225.487 166.453 226.123 165.885 226.676 165.36L226.681 165.354C226.692 165.343 226.714 165.327 226.725 165.316C229.393 162.761 230.012 161.307 230.291 159.091C230.56 156.92 230.083 154.716 229.595 152.73C239.861 154.317 225.553 141.813 235.117 139.396C235.227 139.362 235.338 139.334 235.451 139.313C235.731 139.248 236.01 139.182 236.278 139.106C237.572 138.755 238.811 138.227 239.959 137.536C242.633 135.911 243.514 133.756 244.895 131.328C245.094 130.982 245.178 130.582 245.133 130.185C245.089 129.789 244.919 129.417 244.648 129.124Z" fill="#2F2E41"/>
<path d="M297.985 252.386C297.98 253.343 297.969 254.683 297.925 256.34C297.919 256.57 297.914 256.805 297.908 257.046C297.837 260.092 297.766 262.647 297.651 265.485C297.646 265.682 297.64 265.874 297.629 266.071C297.476 270.031 297.235 274.641 296.818 281.943C296.046 295.431 294.698 283.797 293.345 288.529C293.28 288.764 293.209 289.043 293.143 289.371C292.938 290.562 292.592 291.724 292.113 292.833C291.395 293.26 290.656 293.67 289.927 294.08C287.851 295.234 285.742 296.345 283.617 297.4C282.423 297.991 281.223 298.571 280.018 299.129C279.826 299.216 279.64 299.304 279.454 299.386C273.283 302.236 266.923 304.659 260.419 306.638C259.148 307.021 257.883 307.393 256.601 307.738C255.264 308.11 253.928 308.46 252.575 308.788C242.509 311.255 232.21 312.647 221.85 312.939C220.453 312.983 219.045 312.999 217.632 312.999C216.931 312.999 216.241 312.994 215.54 312.989C215.326 312.989 215.112 312.983 214.899 312.978C214.28 312.961 213.639 312.95 212.992 312.934C200.492 312.544 188.093 310.554 176.1 307.01L175.59 306.863C174.802 306.622 174.018 306.387 173.235 306.135C169.62 304.992 166.057 303.712 162.548 302.296C159.869 301.218 157.222 300.062 154.605 298.828C154.581 298.821 154.559 298.81 154.539 298.795C153.992 298.543 153.438 298.281 152.891 298.013C152.819 297.975 152.743 297.936 152.666 297.898C150.623 296.903 148.602 295.86 146.602 294.769C144.921 290.913 142.554 290.175 141.086 286.784C140.659 285.776 140.35 284.723 140.166 283.644C140.166 283.633 140.16 283.622 140.16 283.606C140.314 285.641 139.509 279.996 140.155 283.584C140.149 283.518 140.144 283.447 140.138 283.365C140.122 283.168 140.1 282.928 140.067 282.627C138.188 264.309 138.309 243.361 137.493 226.099C137.438 224.983 137.381 223.915 137.323 222.894C137.306 222.555 137.285 222.221 137.263 221.893C137.301 221.794 137.345 221.691 137.394 221.592C137.405 221.564 137.417 221.536 137.432 221.51C137.449 221.476 137.467 221.443 137.487 221.412C137.498 221.395 137.515 221.373 137.526 221.357C137.534 221.338 137.543 221.32 137.553 221.302C137.602 221.226 137.657 221.144 137.717 221.067C137.745 221.034 137.767 221.007 137.794 220.979C137.813 220.952 137.835 220.926 137.86 220.903C137.877 220.877 137.897 220.853 137.92 220.832C137.942 220.81 137.964 220.783 137.991 220.755C138.003 220.738 138.018 220.723 138.035 220.712C138.078 220.662 138.126 220.616 138.177 220.575C138.373 220.395 138.582 220.231 138.802 220.083C138.879 220.033 138.961 219.984 139.037 219.929C139.589 219.6 140.171 219.321 140.774 219.098C140.982 219.021 141.19 218.95 141.415 218.874C141.497 218.852 141.574 218.825 141.656 218.797C141.776 218.759 141.897 218.721 142.023 218.693C142.647 218.507 143.321 218.349 144.05 218.201C144.137 218.185 144.23 218.168 144.323 218.146C144.455 218.119 144.592 218.097 144.729 218.075C144.915 218.042 145.107 218.01 145.298 217.977C146.925 217.72 148.771 217.528 150.809 217.402C151.001 217.392 151.193 217.381 151.384 217.37C151.609 217.359 151.833 217.348 152.063 217.337C152.255 217.326 152.452 217.32 152.65 217.315C152.841 217.304 153.039 217.299 153.241 217.293C153.794 217.277 154.364 217.26 154.945 217.249C156.599 217.216 158.341 217.227 160.171 217.266C161.02 217.288 161.885 217.309 162.773 217.348C162.833 217.348 162.888 217.353 162.942 217.353C163.715 217.381 164.493 217.413 165.292 217.457C165.851 217.484 166.415 217.512 166.979 217.545C167.511 217.577 168.048 217.61 168.59 217.649C169.012 217.67 169.433 217.703 169.861 217.731C170.222 217.758 170.584 217.785 170.945 217.807L171.438 217.84C171.707 217.862 171.975 217.878 172.249 217.906C172.852 217.955 173.454 218.004 174.068 218.053C174.676 218.108 175.295 218.163 175.914 218.217C176.533 218.272 177.157 218.332 177.781 218.392C177.847 218.398 177.907 218.403 177.968 218.409C178.537 218.469 179.107 218.524 179.682 218.584C179.814 218.595 179.951 218.606 180.082 218.622C180.631 218.677 181.19 218.742 181.743 218.8C181.913 218.819 182.082 218.836 182.252 218.855C182.686 218.902 183.113 218.943 183.55 218.994C184.125 219.06 184.711 219.12 185.28 219.196C185.724 219.246 186.168 219.295 186.612 219.35C187.307 219.432 188.014 219.519 188.721 219.612C188.989 219.645 189.257 219.678 189.526 219.716C191.542 219.968 193.579 220.247 195.65 220.536C198.789 220.98 201.977 221.461 205.187 221.98C208.402 222.5 211.636 223.049 214.888 223.627C215.709 223.774 216.531 223.922 217.358 224.075C217.731 224.146 218.103 224.217 218.476 224.289C219.111 224.403 219.746 224.524 220.382 224.644C221.017 224.764 221.653 224.885 222.288 225.011C223.044 225.158 223.805 225.306 224.561 225.454C229.541 226.438 234.493 227.488 239.324 228.588C240.118 228.768 240.912 228.954 241.701 229.135C243.279 229.501 244.842 229.873 246.39 230.25C246.817 230.349 247.239 230.453 247.661 230.557C248.713 230.819 249.765 231.082 250.8 231.35L250.981 231.399C251.742 231.585 252.487 231.776 253.232 231.973C254.99 232.433 256.719 232.898 258.419 233.368C259.548 233.68 260.663 233.995 261.766 234.314C263.415 234.79 265.031 235.271 266.603 235.758C266.992 235.879 267.381 235.999 267.764 236.114C268.915 236.469 270.049 236.83 271.15 237.191C272.026 237.476 272.881 237.766 273.724 238.055C274.568 238.345 275.395 238.635 276.206 238.925C276.726 239.111 277.241 239.308 277.756 239.494C278.495 239.767 279.224 240.041 279.936 240.314C280.155 240.396 280.369 240.484 280.582 240.566C280.719 240.626 280.851 240.675 280.982 240.73C281.24 240.834 281.503 240.932 281.755 241.036C282.012 241.135 282.264 241.239 282.516 241.348C282.762 241.447 283.014 241.551 283.255 241.654C283.502 241.753 283.743 241.857 283.984 241.966C284.187 242.048 284.384 242.136 284.576 242.223C284.964 242.393 285.353 242.562 285.731 242.737C285.918 242.825 286.104 242.907 286.29 242.994L286.717 243.191C286.778 243.224 286.838 243.252 286.898 243.279C287.035 243.345 287.178 243.416 287.314 243.481C287.632 243.629 287.944 243.788 288.251 243.935C288.662 244.143 289.062 244.351 289.445 244.553C289.834 244.761 290.212 244.969 290.574 245.171C290.634 245.204 290.689 245.237 290.749 245.27C290.831 245.314 290.913 245.363 290.996 245.407C291.275 245.565 291.543 245.729 291.812 245.888C292.338 246.211 292.836 246.528 293.302 246.845C293.406 246.916 293.504 246.987 293.608 247.053C293.953 247.299 294.282 247.54 294.589 247.786C294.589 247.791 294.589 247.791 294.594 247.791C294.698 247.868 294.797 247.95 294.896 248.026C294.978 248.103 295.065 248.169 295.148 248.245C295.432 248.491 295.695 248.727 295.936 248.967C296.017 249.041 296.094 249.12 296.167 249.202C296.198 249.229 296.228 249.258 296.254 249.29C296.364 249.399 296.462 249.509 296.555 249.618C296.57 249.633 296.583 249.65 296.594 249.667C296.725 249.82 296.846 249.974 296.961 250.127C297.016 250.203 297.076 250.28 297.125 250.356C297.191 250.449 297.257 250.548 297.311 250.641C297.361 250.717 297.404 250.8 297.448 250.876C297.565 251.073 297.664 251.28 297.744 251.494C297.806 251.639 297.855 251.789 297.892 251.943C297.933 252.088 297.965 252.236 297.985 252.386Z" fill="#2F2E41"/>
<path opacity="0.2" d="M297.985 252.386C297.98 253.343 297.969 254.683 297.925 256.34C297.919 256.57 297.908 256.805 297.903 257.046C297.848 259.37 297.766 262.242 297.651 265.485C297.646 265.682 297.64 265.874 297.629 266.071C297.476 270.031 297.235 274.641 296.818 281.943C296.046 295.431 294.698 283.797 293.345 288.529C289.588 286.22 285.468 283.803 281.064 281.32C280.27 280.871 279.468 280.421 278.66 279.969C269.851 275.063 260.013 269.921 249.743 264.829C249.337 264.627 248.926 264.424 248.521 264.227C224.994 252.615 199.314 241.321 178.51 233.784C174.495 232.329 170.66 231.016 167.056 229.862C159.464 227.439 152.902 225.743 147.851 225.011C142.592 224.245 138.961 224.518 137.493 226.099C137.438 224.983 137.381 223.915 137.323 222.894C137.301 222.555 137.279 222.221 137.257 221.893C137.291 221.803 137.335 221.717 137.377 221.63C137.383 221.618 137.388 221.605 137.394 221.592C137.405 221.564 137.417 221.536 137.432 221.51C137.449 221.476 137.467 221.443 137.487 221.412C137.505 221.373 137.527 221.336 137.553 221.302C137.602 221.226 137.657 221.144 137.717 221.067C137.762 221.01 137.809 220.955 137.86 220.903C137.876 220.877 137.897 220.853 137.92 220.832C137.942 220.81 137.964 220.783 137.991 220.755C138.003 220.738 138.018 220.723 138.035 220.712C138.078 220.662 138.126 220.616 138.177 220.575C138.373 220.395 138.582 220.231 138.802 220.082C138.878 220.033 138.961 219.984 139.037 219.929C139.589 219.6 140.171 219.321 140.774 219.098C140.982 219.021 141.19 218.95 141.415 218.874C141.497 218.852 141.574 218.825 141.656 218.797C141.776 218.759 141.897 218.721 142.023 218.693C142.647 218.507 143.321 218.349 144.049 218.201C144.269 218.157 144.499 218.113 144.729 218.075C144.915 218.042 145.107 218.01 145.298 217.977C146.925 217.72 148.771 217.528 150.809 217.402C151.001 217.391 151.192 217.381 151.384 217.37C151.609 217.359 151.833 217.348 152.063 217.337C152.255 217.326 152.452 217.32 152.65 217.315C152.841 217.304 153.038 217.299 153.241 217.293C153.794 217.277 154.364 217.26 154.945 217.249C156.599 217.222 158.341 217.233 160.171 217.271C161.02 217.288 161.885 217.315 162.772 217.353C162.827 217.353 162.887 217.359 162.942 217.359C163.715 217.381 164.498 217.419 165.292 217.457C165.851 217.484 166.415 217.512 166.979 217.545C167.511 217.577 168.047 217.61 168.59 217.649C169.012 217.67 169.433 217.703 169.861 217.731C170.222 217.758 170.584 217.785 170.945 217.807C171.378 217.84 171.811 217.873 172.249 217.906C172.851 217.955 173.454 218.004 174.068 218.053C174.676 218.108 175.295 218.163 175.914 218.217C176.533 218.272 177.157 218.332 177.781 218.392C177.847 218.398 177.907 218.403 177.968 218.409C178.537 218.469 179.107 218.524 179.682 218.584C182.87 218.907 186.151 219.284 189.526 219.716C191.542 219.973 193.583 220.248 195.65 220.542C198.789 220.985 201.977 221.466 205.187 221.98C208.402 222.5 211.636 223.049 214.888 223.627C215.709 223.774 216.531 223.922 217.358 224.075C218.366 224.261 219.374 224.451 220.382 224.644C221.017 224.764 221.653 224.885 222.288 225.011C223.044 225.158 223.805 225.306 224.561 225.454C229.541 226.438 234.493 227.488 239.324 228.588C240.118 228.768 240.912 228.954 241.701 229.135C243.279 229.501 244.842 229.873 246.39 230.25C246.817 230.354 247.239 230.458 247.661 230.562C248.718 230.825 249.764 231.087 250.8 231.35V231.355C250.86 231.366 250.92 231.383 250.981 231.399C251.736 231.59 252.487 231.782 253.232 231.979C254.99 232.438 256.719 232.901 258.419 233.368C259.548 233.685 260.665 233.997 261.766 234.314C263.415 234.796 265.031 235.277 266.603 235.758C266.992 235.879 267.381 235.999 267.764 236.114C268.915 236.475 270.043 236.834 271.15 237.191C272.026 237.476 272.881 237.766 273.724 238.055C274.568 238.345 275.395 238.635 276.206 238.925C276.731 239.111 277.246 239.303 277.756 239.488C278.501 239.762 279.224 240.035 279.936 240.314C280.155 240.396 280.369 240.484 280.582 240.566C280.982 240.719 281.371 240.878 281.755 241.036C282.012 241.135 282.264 241.239 282.516 241.348C282.762 241.447 283.014 241.551 283.255 241.654C283.502 241.753 283.743 241.857 283.984 241.966C284.187 242.048 284.384 242.136 284.576 242.223C284.964 242.393 285.353 242.562 285.731 242.737C285.918 242.825 286.104 242.907 286.29 242.995L286.717 243.191C286.778 243.224 286.838 243.252 286.898 243.279C287.364 243.498 287.813 243.716 288.251 243.935C288.662 244.143 289.062 244.351 289.445 244.553C289.9 244.794 290.333 245.029 290.749 245.27C290.831 245.314 290.913 245.363 290.995 245.407C291.275 245.565 291.543 245.729 291.812 245.888C292.338 246.211 292.836 246.528 293.302 246.845C293.762 247.162 294.189 247.474 294.589 247.786C294.589 247.791 294.589 247.791 294.594 247.791C294.786 247.944 294.972 248.098 295.148 248.245C295.432 248.491 295.695 248.727 295.936 248.967C296.017 249.042 296.094 249.12 296.166 249.202C296.198 249.229 296.228 249.258 296.254 249.29C296.369 249.416 296.484 249.542 296.594 249.667C296.725 249.82 296.846 249.974 296.961 250.127C297.016 250.203 297.076 250.28 297.125 250.356C297.191 250.449 297.257 250.548 297.311 250.641C297.361 250.717 297.404 250.8 297.448 250.876C297.565 251.073 297.664 251.28 297.744 251.494C297.804 251.64 297.853 251.79 297.892 251.943C297.933 252.088 297.965 252.236 297.985 252.386Z" fill="black"/>
</g>
<defs>
<clipPath id="clip0_33_177">
<rect width="431" height="313" fill="white"/>
</clipPath>
</defs>
</svg>
